<svg width="29" height="29" viewBox="0 0 29 29" fill="none" xmlns="http://www.w3.org/2000/svg">
<path d="M0.68457 0.937805V28.4378H28.1846V0.937805H0.68457ZM3.18457 3.43781H25.6846V25.9378H3.18457V3.43781ZM17.7964 7.97394C15.6089 7.97394 13.7867 9.94693 14.2954 12.3807C11.3204 12.2282 8.66908 10.8069 6.90283 8.63068C6.59158 9.16068 6.41699 9.77226 6.41699 10.4398C6.41574 11.6398 7.01492 12.7606 8.01367 13.4256C7.42867 13.4043 6.87127 13.2414 6.39502 12.9739V13.0154C6.39502 14.7592 7.62486 16.2046 9.26611 16.5384C8.69736 16.6871 8.19996 16.6868 7.64746 16.6043C8.10121 18.0268 9.42451 19.0596 10.9995 19.0921C9.76951 20.0546 8.22758 20.6229 6.54883 20.6229C6.25383 20.6229 5.97457 20.6139 5.68457 20.5814C7.27082 21.5989 9.15738 22.1878 11.1924 22.1878C17.7874 22.1878 21.3975 16.724 21.3975 11.9827C21.3975 11.829 21.3965 11.6726 21.3853 11.5189C22.0853 11.0101 22.6971 10.3748 23.1821 9.65851C22.5371 9.93726 21.8392 10.1413 21.1167 10.2176C21.8604 9.77509 22.4239 9.07374 22.6914 8.24249C22.0027 8.65249 21.2248 8.953 20.416 9.10675C19.7598 8.40675 18.8301 7.97394 17.7964 7.97394Z" fill="#F2F2F2"/>
</svg>
