<svg width="28" height="23" viewBox="0 0 28 23" fill="none" xmlns="http://www.w3.org/2000/svg">
<path d="M10.6562 0.594055L9.875 0.687805C9.875 0.687805 6.37109 1.07062 3.8125 3.12531H3.78125L3.75 3.15656C3.17578 3.6839 2.92578 4.33234 2.53125 5.28156C2.13672 6.23077 1.71484 7.44171 1.34375 8.78156C0.601563 11.4651 0 14.7151 0 17.6878V17.9378L0.125 18.1878C1.05078 19.8128 2.69531 20.848 4.21875 21.5628C5.74219 22.2776 7.05859 22.6566 7.96875 22.6878L8.5625 22.7191L8.875 22.1878L9.96875 20.2503C11.1289 20.512 12.4648 20.6878 14 20.6878C15.5352 20.6878 16.8711 20.512 18.0312 20.2503L19.125 22.1878L19.4375 22.7191L20.0312 22.6878C20.9414 22.6566 22.2578 22.2776 23.7812 21.5628C25.3047 20.848 26.9492 19.8128 27.875 18.1878L28 17.9378V17.6878C28 14.7151 27.3984 11.4651 26.6562 8.78156C26.2852 7.44171 25.8633 6.23077 25.4688 5.28156C25.0742 4.33234 24.8242 3.6839 24.25 3.15656L24.2188 3.12531H24.1875C21.6289 1.07062 18.125 0.687805 18.125 0.687805L17.3438 0.594055L17.0625 1.31281C17.0625 1.31281 16.7734 2.04327 16.5938 2.87531C15.4609 2.72296 14.5352 2.68781 14 2.68781C13.4648 2.68781 12.5391 2.72296 11.4062 2.87531C11.2266 2.04327 10.9375 1.31281 10.9375 1.31281L10.6562 0.594055ZM9.28125 2.87531C9.32422 3.01593 9.36719 3.13702 9.40625 3.25031C8.11328 3.57062 6.73438 4.0589 5.46875 4.84406L6.53125 6.53156C9.125 4.92218 12.8516 4.68781 14 4.68781C15.1484 4.68781 18.875 4.92218 21.4688 6.53156L22.5312 4.84406C21.2656 4.0589 19.8867 3.57062 18.5938 3.25031C18.6328 3.13702 18.6758 3.01593 18.7188 2.87531C19.6523 3.06281 21.4336 3.49249 22.9062 4.65656C22.8984 4.66046 23.2812 5.23859 23.625 6.06281C23.9766 6.91046 24.3672 8.03937 24.7188 9.31281C25.3945 11.7542 25.9258 14.7269 25.9688 17.3441C25.3398 18.305 24.1719 19.1722 22.9375 19.7503C21.8594 20.2542 21.0078 20.4378 20.5 20.5316L20 19.6878C20.2969 19.5784 20.5898 19.4573 20.8438 19.3441C22.3828 18.6683 23.2188 17.9378 23.2188 17.9378L21.9062 16.4378C21.9062 16.4378 21.3438 16.9534 20.0312 17.5316C18.7188 18.1097 16.7148 18.6878 14 18.6878C11.2852 18.6878 9.28125 18.1097 7.96875 17.5316C6.65625 16.9534 6.09375 16.4378 6.09375 16.4378L4.78125 17.9378C4.78125 17.9378 5.61719 18.6683 7.15625 19.3441C7.41016 19.4573 7.70312 19.5784 8 19.6878L7.5 20.5316C6.99219 20.4378 6.14062 20.2542 5.0625 19.7503C3.82812 19.1722 2.66016 18.305 2.03125 17.3441C2.07422 14.7269 2.60547 11.7542 3.28125 9.31281C3.63281 8.03937 4.02344 6.91046 4.375 6.06281C4.71875 5.23859 5.10156 4.66046 5.09375 4.65656C6.56641 3.49249 8.34766 3.06281 9.28125 2.87531ZM10.5 9.68781C9.72656 9.68781 9.04297 10.1292 8.625 10.6878C8.20703 11.2464 8 11.9339 8 12.6878C8 13.4417 8.20703 14.1292 8.625 14.6878C9.04297 15.2464 9.72656 15.6878 10.5 15.6878C11.2734 15.6878 11.957 15.2464 12.375 14.6878C12.793 14.1292 13 13.4417 13 12.6878C13 11.9339 12.793 11.2464 12.375 10.6878C11.957 10.1292 11.2734 9.68781 10.5 9.68781ZM17.5 9.68781C16.7266 9.68781 16.043 10.1292 15.625 10.6878C15.207 11.2464 15 11.9339 15 12.6878C15 13.4417 15.207 14.1292 15.625 14.6878C16.043 15.2464 16.7266 15.6878 17.5 15.6878C18.2734 15.6878 18.957 15.2464 19.375 14.6878C19.793 14.1292 20 13.4417 20 12.6878C20 11.9339 19.793 11.2464 19.375 10.6878C18.957 10.1292 18.2734 9.68781 17.5 9.68781ZM10.5 11.6878C10.5547 11.6878 10.625 11.7073 10.75 11.8753C10.875 12.0433 11 12.3362 11 12.6878C11 13.0394 10.875 13.3323 10.75 13.5003C10.625 13.6683 10.5547 13.6878 10.5 13.6878C10.4453 13.6878 10.375 13.6683 10.25 13.5003C10.125 13.3323 10 13.0394 10 12.6878C10 12.3362 10.125 12.0433 10.25 11.8753C10.375 11.7073 10.4453 11.6878 10.5 11.6878ZM17.5 11.6878C17.5547 11.6878 17.625 11.7073 17.75 11.8753C17.875 12.0433 18 12.3362 18 12.6878C18 13.0394 17.875 13.3323 17.75 13.5003C17.625 13.6683 17.5547 13.6878 17.5 13.6878C17.4453 13.6878 17.375 13.6683 17.25 13.5003C17.125 13.3323 17 13.0394 17 12.6878C17 12.3362 17.125 12.0433 17.25 11.8753C17.375 11.7073 17.4453 11.6878 17.5 11.6878Z" fill="#F2F2F2"/>
</svg>
