<svg width="28" height="29" viewBox="0 0 28 29" fill="none" xmlns="http://www.w3.org/2000/svg">
<path d="M8.20508 0.937805C3.7666 0.937805 0.119141 4.58038 0.119141 9.02374V20.3519C0.119141 24.7903 3.76172 28.4378 8.20508 28.4378H19.5332C23.9717 28.4378 27.6191 24.7952 27.6191 20.3519V9.02374C27.6191 4.58527 23.9766 0.937805 19.5332 0.937805H8.20508ZM8.20508 3.43781H19.5332C22.624 3.43781 25.1191 5.93292 25.1191 9.02374V20.3519C25.1191 23.4427 22.624 25.9378 19.5332 25.9378H8.20508C5.11426 25.9378 2.61914 23.4427 2.61914 20.3519V9.02374C2.61914 5.93292 5.11426 3.43781 8.20508 3.43781ZM21.252 6.17218C20.6221 6.17218 20.1191 6.67511 20.1191 7.30499C20.1191 7.93488 20.6221 8.43781 21.252 8.43781C21.8818 8.43781 22.3848 7.93488 22.3848 7.30499C22.3848 6.67511 21.8818 6.17218 21.252 6.17218ZM13.8691 7.18781C9.74316 7.18781 6.36914 10.5618 6.36914 14.6878C6.36914 18.8138 9.74316 22.1878 13.8691 22.1878C17.9951 22.1878 21.3691 18.8138 21.3691 14.6878C21.3691 10.5618 17.9951 7.18781 13.8691 7.18781ZM13.8691 9.68781C16.6475 9.68781 18.8691 11.9095 18.8691 14.6878C18.8691 17.4661 16.6475 19.6878 13.8691 19.6878C11.0908 19.6878 8.86914 17.4661 8.86914 14.6878C8.86914 11.9095 11.0908 9.68781 13.8691 9.68781Z" fill="#F2F2F2"/>
</svg>
